# Blender v2.74 (sub 0) OBJ File: ''
# www.blender.org
mtllib room.mtl
o Cube_Cube_Material
v -20.000000 0.000015 -69.827423
v -20.000000 -0.000006 10.172575
v 20.000000 -0.000006 10.172575
v 20.000000 19.999994 10.172581
v -20.000000 19.999994 10.172581
v -20.000000 20.000013 -69.827423
v 20.000000 20.000013 -69.827423
v 20.000000 0.000015 -69.827423
vt 3.013874 -4.527748
vt 3.013874 5.527748
vt -2.013874 5.527748
vt 5.527748 -2.013874
vt 5.527748 3.013874
vt -4.527748 3.013874
vt 5.527748 -0.756937
vt 5.527748 1.756937
vt -4.527748 1.756937
vt 3.013874 -0.756937
vt 3.013874 1.756937
vt -2.013874 1.756937
vt -2.013874 -4.527748
vt -4.527748 -2.013874
vt -4.527748 -0.756937
vt -2.013874 -0.756937
vn 0.000000 1.000000 0.000000
vn 0.000000 -1.000000 -0.000000
vn -1.000000 -0.000000 0.000000
vn 0.000000 0.000000 -1.000000
vn 1.000000 -0.000000 0.000000
vn 0.000000 0.000000 1.000000
g Cube_Cube_Material_Cube_Cube_Material_Material.001
usemtl Material.001
s 1
f 1/1/1 2/2/1 3/3/1
f 4/4/2 5/5/2 6/6/2
f 3/7/3 4/8/3 7/9/3
f 2/10/4 5/11/4 4/12/4
f 1/7/5 6/8/5 5/9/5
f 6/10/6 1/11/6 8/12/6
f 8/13/1 1/1/1 3/3/1
f 7/14/2 4/4/2 6/6/2
f 8/15/3 3/7/3 7/9/3
f 3/16/4 2/10/4 4/12/4
f 2/15/5 1/7/5 5/9/5
f 7/16/6 6/10/6 8/12/6
