# Blender v2.74 (sub 0) OBJ File: ''
# www.blender.org
mtllib navmesh.mtl
o Cube_Cube_Material.001
v -2.196336 0.000000 -0.900000
v -2.196336 -0.000000 0.900000
v 2.166528 -0.000000 0.900001
v 2.166529 0.000000 -0.899999
v 3.851979 -0.000000 0.900001
v -3.796832 0.000000 -0.900000
v -3.796832 -0.000000 0.899999
v 3.851980 0.000000 -0.899999
v -2.196337 -0.000001 4.782783
v -3.796833 -0.000001 4.782782
v 3.851979 -0.000002 4.800019
v 2.166528 -0.000002 4.800018
v 2.166529 0.000001 -4.800018
v 3.851981 0.000002 -4.800017
v -3.796831 0.000001 -4.782783
v -2.196335 0.000002 -4.782783
vn -0.000000 1.000000 0.000000
g Cube_Cube_Material.001_Cube_Cube_Material.001_Material.001
usemtl Material.001
s 1
f 1//1 2//1 3//1
f 4//1 3//1 5//1
f 1//1 6//1 7//1
f 7//1 10//1 9//1
f 3//1 12//1 11//1
f 8//1 14//1 13//1
f 1//1 16//1 15//1
f 4//1 1//1 3//1
f 8//1 4//1 5//1
f 2//1 1//1 7//1
f 2//1 7//1 9//1
f 5//1 3//1 11//1
f 4//1 8//1 13//1
f 6//1 1//1 15//1
