# Blender v2.74 (sub 0) OBJ File: ''
# www.blender.org
mtllib room.mtl
o Cube_Cube.001
v -1.500000 1.431576 -29.000000
v -1.500000 1.568424 -29.000000
v -1.500000 1.431576 -31.000000
v -1.500000 1.568424 -31.000000
v 1.500000 1.431576 -29.000000
v 1.500000 1.568424 -29.000000
v 1.500000 1.431576 -31.000000
v 1.500000 1.568424 -31.000000
v 4.103640 0.000000 -28.500000
v 4.103640 15.000000 -28.500000
v 4.103640 0.000000 -31.500000
v 4.103640 15.000000 -31.500000
v 8.103640 0.000000 -28.500000
v 8.103640 15.000000 -28.500000
v 8.103640 0.000000 -31.500000
v 8.103640 15.000000 -31.500000
v -1.500000 1.500000 -29.000000
v -1.500000 1.568424 -30.000000
v -1.500000 1.500000 -31.000000
v -1.500000 1.431576 -30.000000
v 0.000000 1.568424 -31.000000
v 1.500000 1.500000 -31.000000
v 0.000000 1.431576 -31.000000
v 1.500000 1.568424 -30.000000
v 1.500000 1.500000 -29.000000
v 1.500000 1.431576 -30.000000
v 0.000000 1.568424 -29.000000
v 0.000000 1.431576 -29.000000
v 0.000000 1.568424 -30.000000
v 0.000000 1.431576 -30.000000
v 0.000000 1.500000 -29.000000
v 1.500000 1.500000 -30.000000
v 0.000000 1.500000 -31.000000
v -1.500000 1.500000 -30.000000
v -1.500000 1.534212 -29.000000
v -1.500000 1.568424 -30.500000
v -1.500000 1.465788 -31.000000
v -1.500000 1.431576 -29.500000
v 1.000000 1.568424 -31.000000
v 1.500000 1.465788 -31.000000
v -1.000000 1.431576 -31.000000
v 1.500000 1.568424 -29.500000
v 1.500000 1.465788 -29.000000
v 1.500000 1.431576 -30.500000
v -1.000000 1.568424 -29.000000
v 1.000000 1.431576 -29.000000
v -1.500000 1.465788 -29.000000
v -1.500000 1.568424 -29.500000
v -1.500000 1.534212 -31.000000
v -1.500000 1.431576 -30.500000
v -1.000000 1.568424 -31.000000
v 1.500000 1.534212 -31.000000
v 1.000000 1.431576 -31.000000
v 1.500000 1.568424 -30.500000
v 1.500000 1.534212 -29.000000
v 1.500000 1.431576 -29.500000
v 1.000000 1.568424 -29.000000
v -1.000000 1.431576 -29.000000
v -1.000000 1.568424 -30.000000
v 1.000000 1.568424 -30.000000
v 0.000000 1.568424 -29.500000
v 0.000000 1.568424 -30.500000
v 1.000000 1.431576 -30.000000
v -1.000000 1.431576 -30.000000
v 0.000000 1.431576 -29.500000
v 0.000000 1.431576 -30.500000
v 0.000000 1.465788 -29.000000
v 0.000000 1.534212 -29.000000
v 1.000000 1.500000 -29.000000
v -1.000000 1.500000 -29.000000
v 1.500000 1.465788 -30.000000
v 1.500000 1.534212 -30.000000
v 1.500000 1.500000 -30.500000
v 1.500000 1.500000 -29.500000
v 0.000000 1.465788 -31.000000
v 0.000000 1.534212 -31.000000
v -1.000000 1.500000 -31.000000
v 1.000000 1.500000 -31.000000
v -1.500000 1.465788 -30.000000
v -1.500000 1.534212 -30.000000
v -1.500000 1.500000 -29.500000
v -1.500000 1.500000 -30.500000
v -1.500000 1.534212 -30.500000
v -1.500000 1.534212 -29.500000
v -1.500000 1.465788 -29.500000
v 1.000000 1.534212 -31.000000
v -1.000000 1.534212 -31.000000
v -1.000000 1.465788 -31.000000
v 1.500000 1.534212 -29.500000
v 1.500000 1.534212 -30.500000
v 1.500000 1.465788 -30.500000
v -1.000000 1.534212 -29.000000
v 1.000000 1.534212 -29.000000
v 1.000000 1.465788 -29.000000
v -1.000000 1.431576 -30.500000
v -1.000000 1.431576 -29.500000
v 1.000000 1.431576 -29.500000
v 1.000000 1.568424 -30.500000
v 1.000000 1.568424 -29.500000
v -1.000000 1.568424 -29.500000
v -1.000000 1.568424 -30.500000
v 1.000000 1.431576 -30.500000
v -1.000000 1.465788 -29.000000
v 1.500000 1.465788 -29.500000
v 1.000000 1.465788 -31.000000
v -1.500000 1.465788 -30.500000
v -1.500000 0.000000 -29.500000
v -1.500000 0.000000 -29.000000
v -1.000000 0.000000 -31.000000
v -1.500000 0.000000 -31.000000
v 1.500000 0.000000 -30.500000
v 1.500000 0.000000 -31.000000
v 1.000000 0.000000 -29.000000
v 1.500000 0.000000 -29.000000
v -1.500000 0.000000 -30.500000
v 1.000000 0.000000 -31.000000
v 1.500000 0.000000 -29.500000
v -1.000000 0.000000 -29.000000
v -1.000000 0.000000 -30.500000
v -1.000000 0.000000 -29.500000
v 1.000000 0.000000 -29.500000
v 1.000000 0.000000 -30.500000
vn -1.000000 0.000000 0.000000
vn 0.000000 0.000000 -1.000000
vn 1.000000 0.000000 0.000000
vn 0.000000 0.000000 1.000000
vn 0.000000 1.000000 0.000000
vn 0.000000 -1.000000 0.000000
g Cube_Cube.001_Material.002
usemtl Material.002
s off
f 37//1 3//1 50//1
f 40//2 7//2 53//2
f 43//3 5//3 56//3
f 47//4 1//4 58//4
f 58//3 118//3 120//3
f 51//5 4//5 36//5
f 12//1 11//1 9//1
f 16//2 15//2 11//2
f 14//3 13//3 15//3
f 10//4 9//4 13//4
f 11//6 15//6 13//6
f 16//5 12//5 10//5
f 59//5 18//5 48//5
f 60//5 29//5 61//5
f 39//5 21//5 62//5
f 63//6 26//6 56//6
f 64//6 30//6 65//6
f 41//6 23//6 66//6
f 67//4 28//4 46//4
f 68//4 31//4 69//4
f 35//4 17//4 70//4
f 71//3 26//3 44//3
f 72//3 32//3 73//3
f 55//3 25//3 74//3
f 75//2 23//2 41//2
f 76//2 33//2 77//2
f 52//2 22//2 78//2
f 79//1 20//1 38//1
f 80//1 34//1 81//1
f 49//1 19//1 82//1
f 83//1 82//1 34//1
f 36//1 83//1 80//1
f 4//1 49//1 83//1
f 84//1 81//1 17//1
f 48//1 84//1 35//1
f 18//1 80//1 84//1
f 85//1 38//1 1//1
f 81//1 85//1 47//1
f 34//1 79//1 85//1
f 86//2 78//2 33//2
f 39//2 86//2 76//2
f 8//2 52//2 86//2
f 87//2 77//2 19//2
f 51//2 87//2 49//2
f 21//2 76//2 87//2
f 88//2 41//2 3//2
f 77//2 88//2 37//2
f 33//2 75//2 88//2
f 89//3 74//3 32//3
f 42//3 89//3 72//3
f 6//3 55//3 89//3
f 90//3 73//3 22//3
f 54//3 90//3 52//3
f 24//3 72//3 90//3
f 91//3 44//3 7//3
f 73//3 91//3 40//3
f 32//3 71//3 91//3
f 92//4 70//4 31//4
f 45//4 92//4 68//4
f 2//4 35//4 92//4
f 93//4 69//4 25//4
f 57//4 93//4 55//4
f 27//4 68//4 93//4
f 94//4 46//4 5//4
f 69//4 94//4 43//4
f 31//4 67//4 94//4
f 95//6 66//6 30//6
f 50//6 95//6 64//6
f 56//2 117//2 121//2
f 96//6 65//6 28//6
f 97//1 121//1 113//1
f 20//6 64//6 96//6
f 7//2 112//2 116//2
f 65//6 97//6 46//6
f 30//6 63//6 97//6
f 98//5 62//5 29//5
f 54//5 98//5 60//5
f 8//5 39//5 98//5
f 99//5 61//5 27//5
f 42//5 99//5 57//5
f 24//5 60//5 99//5
f 100//5 48//5 2//5
f 61//5 100//5 45//5
f 29//5 59//5 100//5
f 101//5 36//5 18//5
f 62//5 101//5 59//5
f 21//5 51//5 101//5
f 102//6 44//6 26//6
f 66//6 102//6 63//6
f 23//6 53//6 102//6
f 103//4 58//4 28//4
f 70//4 103//4 67//4
f 17//4 47//4 103//4
f 104//3 56//3 26//3
f 74//3 104//3 71//3
f 25//3 43//3 104//3
f 105//2 53//2 23//2
f 78//2 105//2 75//2
f 22//2 40//2 105//2
f 106//1 50//1 20//1
f 82//1 106//1 79//1
f 19//1 37//1 106//1
f 116//6 112//6 111//6
f 110//6 109//6 119//6
f 107//6 120//6 118//6
f 121//6 117//6 114//6
f 102//4 122//4 111//4
f 41//2 109//2 110//2
f 1//4 108//4 118//4
f 5//3 114//3 117//3
f 46//4 113//4 114//4
f 53//1 116//1 122//1
f 44//3 111//3 112//3
f 3//1 110//1 115//1
f 96//2 120//2 107//2
f 95//3 119//3 109//3
f 38//1 107//1 108//1
f 50//4 115//4 119//4
f 106//1 37//1 50//1
f 105//2 40//2 53//2
f 104//3 43//3 56//3
f 103//4 47//4 58//4
f 96//3 58//3 120//3
f 101//5 51//5 36//5
f 10//1 12//1 9//1
f 12//2 16//2 11//2
f 16//3 14//3 15//3
f 14//4 10//4 13//4
f 9//6 11//6 13//6
f 14//5 16//5 10//5
f 100//5 59//5 48//5
f 99//5 60//5 61//5
f 98//5 39//5 62//5
f 97//6 63//6 56//6
f 96//6 64//6 65//6
f 95//6 41//6 66//6
f 94//4 67//4 46//4
f 93//4 68//4 69//4
f 92//4 35//4 70//4
f 91//3 71//3 44//3
f 90//3 72//3 73//3
f 89//3 55//3 74//3
f 88//2 75//2 41//2
f 87//2 76//2 77//2
f 86//2 52//2 78//2
f 85//1 79//1 38//1
f 84//1 80//1 81//1
f 83//1 49//1 82//1
f 80//1 83//1 34//1
f 18//1 36//1 80//1
f 36//1 4//1 83//1
f 35//1 84//1 17//1
f 2//1 48//1 35//1
f 48//1 18//1 84//1
f 47//1 85//1 1//1
f 17//1 81//1 47//1
f 81//1 34//1 85//1
f 76//2 86//2 33//2
f 21//2 39//2 76//2
f 39//2 8//2 86//2
f 49//2 87//2 19//2
f 4//2 51//2 49//2
f 51//2 21//2 87//2
f 37//2 88//2 3//2
f 19//2 77//2 37//2
f 77//2 33//2 88//2
f 72//3 89//3 32//3
f 24//3 42//3 72//3
f 42//3 6//3 89//3
f 52//3 90//3 22//3
f 8//3 54//3 52//3
f 54//3 24//3 90//3
f 40//3 91//3 7//3
f 22//3 73//3 40//3
f 73//3 32//3 91//3
f 68//4 92//4 31//4
f 27//4 45//4 68//4
f 45//4 2//4 92//4
f 55//4 93//4 25//4
f 6//4 57//4 55//4
f 57//4 27//4 93//4
f 43//4 94//4 5//4
f 25//4 69//4 43//4
f 69//4 31//4 94//4
f 64//6 95//6 30//6
f 20//6 50//6 64//6
f 97//2 56//2 121//2
f 58//6 96//6 28//6
f 46//1 97//1 113//1
f 38//6 20//6 96//6
f 53//2 7//2 116//2
f 28//6 65//6 46//6
f 65//6 30//6 97//6
f 60//5 98//5 29//5
f 24//5 54//5 60//5
f 54//5 8//5 98//5
f 57//5 99//5 27//5
f 6//5 42//5 57//5
f 42//5 24//5 99//5
f 45//5 100//5 2//5
f 27//5 61//5 45//5
f 61//5 29//5 100//5
f 59//5 101//5 18//5
f 29//5 62//5 59//5
f 62//5 21//5 101//5
f 63//6 102//6 26//6
f 30//6 66//6 63//6
f 66//6 23//6 102//6
f 67//4 103//4 28//4
f 31//4 70//4 67//4
f 70//4 17//4 103//4
f 71//3 104//3 26//3
f 32//3 74//3 71//3
f 74//3 25//3 104//3
f 75//2 105//2 23//2
f 33//2 78//2 75//2
f 78//2 22//2 105//2
f 79//1 106//1 20//1
f 34//1 82//1 79//1
f 82//1 19//1 106//1
f 122//6 116//6 111//6
f 115//6 110//6 119//6
f 108//6 107//6 118//6
f 113//6 121//6 114//6
f 44//4 102//4 111//4
f 3//2 41//2 110//2
f 58//4 1//4 118//4
f 56//3 5//3 117//3
f 5//4 46//4 114//4
f 102//1 53//1 122//1
f 7//3 44//3 112//3
f 50//1 3//1 115//1
f 38//2 96//2 107//2
f 41//3 95//3 109//3
f 1//1 38//1 108//1
f 95//4 50//4 119//4
o Cube_Cube_Material_Cube_Cube_Material_Material.001_Cube_Cube_Ma
v -80.000000 0.000061 -109.827423
v -80.000000 -0.000033 50.172577
v 80.000000 -0.000033 50.172577
v 80.000000 0.000061 -109.827423
vt 3.013874 -4.527748
vt 3.013874 5.527748
vt -2.013874 5.527748
vt -2.013874 -4.527748
vn 0.000000 1.000000 0.000000
g Cube_Cube_Material_Cube_Cube_Material_Material.001_Cube_Cube_Ma_Cube_Cube_Material_Cube_Cube_Material_Material.001_Cube_Cube_Ma_Material.001
usemtl Material.001
s 1
f 123/1/7 124/2/7 125/3/7
f 126/4/7 123/1/7 125/3/7
